<svg width="23" height="18" viewBox="0 0 23 18" fill="none" xmlns="http://www.w3.org/2000/svg">
<g id="tik-tok 1" clip-path="url(#clip0_61_234)">
<g id="Group">
<g id="Group_2">
<path id="Vector" d="M8.24225 9.30506C6.5215 9.30506 5.13135 10.3695 5.15678 11.674C5.17373 12.5113 5.77557 13.2382 6.66137 13.6439C6.36045 13.2902 6.18244 12.8715 6.17396 12.4204C6.14853 11.1159 7.53869 10.0515 9.25943 10.0515C9.5985 10.0515 9.92484 10.0936 10.23 10.1683V7.5559C9.91213 7.5202 9.58578 7.50073 9.25943 7.50073C9.24248 7.50073 9.22976 7.50073 9.21281 7.50073V9.42189C8.90766 9.34725 8.58131 9.30506 8.24225 9.30506Z" fill="#F00044"/>
<path id="Vector_2" d="M15.6804 1.47119H15.655H14.7734C15.0277 2.44799 15.744 3.29823 16.7442 3.87588C16.0873 3.21061 15.6889 2.37985 15.6804 1.47119Z" fill="#F00044"/>
<path id="Vector_3" d="M20.8681 5.44664C20.5332 5.44664 20.2111 5.42068 19.8933 5.37524V7.24772C18.7404 7.24772 17.6215 7.07573 16.5704 6.73173C15.8923 6.51106 15.2608 6.22873 14.6802 5.88798L14.6971 11.6612C14.6886 12.9593 14.019 14.1762 12.8068 15.0946C11.8193 15.841 10.569 16.318 9.21279 16.4706C8.89491 16.5063 8.56857 16.5257 8.24222 16.5257C6.79273 16.5257 5.41105 16.1655 4.2879 15.5002C4.41505 15.6171 4.55068 15.7307 4.69902 15.841C5.91964 16.7626 7.53866 17.2721 9.26364 17.2721C9.58999 17.2721 9.91634 17.2526 10.2342 17.217C11.5905 17.0644 12.8408 16.5874 13.8283 15.841C15.0404 14.9226 15.7101 13.7057 15.7185 12.4076L15.655 6.63438C16.2314 6.97512 16.8629 7.2607 17.5452 7.47813C18.6006 7.81887 19.7195 7.99411 20.8681 7.99411" fill="#F00044"/>
</g>
<path id="Vector_4" d="M4.6863 8.93841C5.89421 8.02002 7.50051 7.51052 9.21278 7.50079V6.80956C8.89491 6.77387 8.56856 6.75439 8.24221 6.75439C6.513 6.75439 4.88973 7.26389 3.66911 8.19202C2.46968 9.10391 1.78307 10.3501 1.78731 11.6449C1.78731 12.9495 2.4612 14.1729 3.67759 15.0978C3.87255 15.2438 4.07175 15.3801 4.28366 15.5034C3.32581 14.6305 2.8045 13.5401 2.80026 12.3913C2.8045 11.0965 3.48686 9.85031 4.6863 8.93841Z" fill="#08FFF9"/>
<path id="Vector_5" d="M19.8932 5.37526V4.68078H19.8847C18.7065 4.68078 17.6215 4.38223 16.7484 3.87598C17.5071 4.64184 18.6175 5.18703 19.8932 5.37526Z" fill="#08FFF9"/>
<path id="Vector_6" d="M9.08561 14.7181C9.48825 14.7343 9.87393 14.6922 10.2299 14.6045C11.459 14.2962 12.3449 13.42 12.3449 12.3881L12.3491 8.5263V1.47125H14.7734C14.7098 1.22786 14.6759 0.981224 14.6717 0.724854H11.3319V7.77666L11.3277 11.6384C11.3277 12.6704 10.4419 13.5466 9.21276 13.8549C8.85675 13.9458 8.47106 13.988 8.06843 13.9685C7.55559 13.9458 7.07667 13.8289 6.66132 13.6407C7.18262 14.2573 8.07266 14.6759 9.08561 14.7181Z" fill="#08FFF9"/>
<path id="Vector_7" d="M9.21281 16.4705C10.5691 16.3179 11.8193 15.8409 12.8069 15.0945C14.019 14.1761 14.6887 12.9592 14.6971 11.6611L14.6802 5.8879C15.2566 6.22864 15.8881 6.51422 16.5705 6.73165C17.6258 7.07239 18.7447 7.24763 19.8933 7.24763V5.37516C18.6176 5.18694 17.5071 4.64174 16.7485 3.87588C15.7482 3.29823 15.0277 2.44799 14.7777 1.47119H12.3491V8.52299L12.3449 12.3848C12.3449 13.4167 11.4591 14.2929 10.23 14.6012C9.87398 14.6921 9.48829 14.7343 9.08566 14.7148C8.06847 14.6726 7.18267 14.254 6.66136 13.6407C5.77556 13.2383 5.17372 12.5081 5.15677 11.6708C5.13134 10.3663 6.5215 9.30184 8.24224 9.30184C8.5813 9.30184 8.90765 9.34403 9.21281 9.41867V7.49751C7.50054 7.50725 5.89423 8.01674 4.68632 8.93513C3.48689 9.84703 2.80029 11.0932 2.80452 12.3848C2.80452 13.5336 3.32583 14.624 4.28792 15.4969C5.41531 16.1622 6.79275 16.5224 8.24224 16.5224C8.56859 16.5256 8.89493 16.5062 9.21281 16.4705Z" fill="black"/>
</g>
</g>
<defs>
<clipPath id="clip0_61_234">
<rect width="21.7" height="16.6154" fill="white" transform="translate(0.524292 0.692383)"/>
</clipPath>
</defs>
</svg>
